<svg width="370" height="420" viewBox="0 0 370 420" fill="none" xmlns="http://www.w3.org/2000/svg">
<g clip-path="url(#clip0_194_628)">
<path d="M151.603 -5.47953e-05L151.519 272.689L136.787 272.578C133.368 271.634 129.838 271.273 126.308 270.968C125.835 262.667 126.308 253.033 123.584 244.509C117.191 224.409 99.6788 212.971 78.8314 213.359C59.9853 213.72 44.586 222.799 34.9962 241.372C2.05731 206.89 -7.75488 155.334 6.08781 108.803C25.5176 43.6158 84.9744 -1.22163 151.603 -5.47953e-05Z" fill="#628D5D"/>
<path d="M297.868 129.348C290.586 128.377 281.802 128.154 272.435 127.932C240.135 127.183 209.559 145.673 193.048 170.993C173.673 200.699 170.699 235.82 184.597 268.802L181.178 270.496C173.284 270.857 165.362 271.301 157.635 273.078L151.52 272.689L151.603 0C185.959 0.638551 219.065 10.6888 246.973 34.7316C274.825 58.7189 293.894 93.2285 297.868 129.32V129.348Z" fill="#497144"/>
<path d="M297.868 129.349C325.943 140.398 349.236 158.888 360.355 183.514C374.725 215.386 372.808 247.258 356.463 275.688C339.146 305.839 306.29 323.357 272.601 322.746L272.462 127.933C281.829 128.155 290.613 128.349 297.896 129.349H297.868Z" fill="#5F9443"/>
<path d="M272.435 127.96L272.574 322.774C264.262 322.635 257.758 321.774 251.17 322.218C245.945 316.166 236.021 318.22 230.823 314.667C212.589 302.201 193.048 288.958 184.57 268.858C170.671 235.875 173.646 200.783 193.02 171.048C209.531 145.728 240.107 127.21 272.407 127.988L272.435 127.96Z" fill="#7CBD59"/>
<path d="M151.519 272.717L157.635 273.106L157.551 418.806C150.074 418.14 141.679 421.86 133.257 418.751L134.202 354.729L87.1426 306.421C93.2022 305.061 97.9554 300.202 105.766 299.147C112.604 309.697 123.223 316.944 134.091 327.549L136.759 272.578L151.492 272.689L151.519 272.717Z" fill="#AD8467"/>
<path d="M181.178 270.523L182.846 362.253C182.873 363.974 182.707 365.64 184.319 364.39C179.788 373.941 183.151 385.268 183.151 395.624V418.889C175.174 418.889 167.446 419.722 157.551 418.806L157.634 273.105C165.362 271.329 173.284 270.884 181.178 270.523Z" fill="#7D5743"/>
<path d="M126.308 271.023C114.633 286.876 121.777 282.961 105.794 299.175C97.9833 300.23 93.2301 305.088 87.1705 306.449C83.3901 307.281 80.8607 305.949 78.8037 306.032V213.442C99.6789 213.054 117.191 224.52 123.584 244.592C126.28 253.088 125.808 262.722 126.308 271.051V271.023Z" fill="#619641"/>
<path d="M78.8317 213.414V306.004C61.4033 306.754 47.6996 297.87 39.583 285.765C30.3545 272.022 30.4101 256.364 35.0243 241.4C44.6141 222.854 60.0134 213.748 78.8595 213.387L78.8317 213.414Z" fill="#7CBD59"/>
<path d="M251.17 322.19L183.152 395.596C183.152 385.24 179.789 373.913 184.319 364.362C200.775 348.871 216.202 331.88 230.823 314.639C236.021 318.192 245.944 316.138 251.17 322.19Z" fill="#AD8467"/>
</g>
<defs>
<clipPath id="clip0_194_628">
<rect width="370" height="420" fill="white"/>
</clipPath>
</defs>
</svg>
