<svg width="308" height="387" viewBox="0 0 308 387" fill="none" xmlns="http://www.w3.org/2000/svg">
<g clip-path="url(#clip0_194_619)">
<path d="M122.079 0V239.738C64.5355 240.155 14.8438 200.657 2.52486 142.898C-5.38253 105.846 5.57684 68.7944 29.4377 40.3316C53.2987 11.8688 86.8982 0.19457 122.079 0Z" fill="#628D5D"/>
<path d="M240.801 147.262C240.496 147.262 239.858 147.568 238.498 147.984C195.549 146.289 166.693 184.147 170.439 229.509C167.193 231.872 162.809 232.233 160.062 235.402C153.209 233.984 147.105 239.015 140.807 239.794C134.925 240.516 128.072 239.738 122.079 239.794V-2.90585e-05C158.536 -0.194599 192.857 14.3704 215.664 42.4719C240.551 73.1305 248.098 109.793 240.801 147.234V147.262Z" fill="#497144"/>
<path d="M238.498 284.656V147.984C239.858 147.567 240.523 147.262 240.829 147.262C280.588 148.262 309.554 181.673 307.972 219.836C306.446 255.776 274.9 285.99 238.526 284.684L238.498 284.656Z" fill="#5F9443"/>
<path d="M238.498 147.985V284.656C225.957 284.212 215.636 281.682 205.342 277.291C201.208 271.815 194.605 269.98 190.443 266.645C181.814 254.47 174.767 242.713 170.439 229.51C166.693 184.147 195.548 146.317 238.498 147.985Z" fill="#7CBD59"/>
<path d="M160.063 235.374L160.729 293.939L160.673 322.819L161.311 385.971C155.013 385.971 149.187 387.806 140.752 386.555L140.807 239.738C147.106 238.959 153.21 233.928 160.063 235.346V235.374Z" fill="#8F6750"/>
<path d="M140.807 239.766L140.752 386.584C135.064 385.75 128.128 385.972 120.72 385.972L122.079 239.766C128.072 239.711 134.925 240.517 140.807 239.766Z" fill="#AD8467"/>
<path d="M205.37 277.29L160.7 322.847L160.756 293.967L190.471 266.672C194.633 270.007 201.236 271.842 205.37 277.318V277.29Z" fill="#AD8467"/>
</g>
<defs>
<clipPath id="clip0_194_619">
<rect width="308" height="387" fill="white"/>
</clipPath>
</defs>
</svg>
